<svg xmlns="http://www.w3.org/2000/svg" viewBox="0 0 932.92 484.81"><title>Asset 5</title><g id="Layer_2" data-name="Layer 2"><g id="Layer_3" data-name="Layer 3"><path d="M607.63,121.53h9.8a34.25,34.25,0,0,1,25.3,10.59,34.61,34.61,0,0,1,10.47,25.17q0,15.65-10.6,26a34.82,34.82,0,0,1-25.17,10.33h-9.8a35.94,35.94,0,0,1-35.77-35.77q0-15.63,10.73-26A35,35,0,0,1,607.63,121.53Z" fill="#fff"/><path d="M292.85,115.23v20.55a115.64,115.64,0,0,1,36.78-21.44,129.14,129.14,0,0,1,43.62-7.15q54.18,0,85.75,33.65,25,26.79,25,70.27V324.55q19.35,0,28.59,8.49t9.23,22.18q0,13.39-9.38,21.89T481,385.59H426q-22,0-31.41-8.48t-9.38-22.19q0-13.4,9.23-21.88T423,324.55V209.32q0-19.95-10.72-29.18-14-11.91-42-11.91-21.15,0-37.07,8.19t-40.35,34.69V324.55q23.52,0,30.38,4.47,14.58,8.93,14.59,26.2,0,13.39-9.38,21.89T297,385.59H227.65q-22.05,0-31.42-8.48t-9.38-22.19q0-16.67,14.3-25.9,7.14-4.47,30.66-4.47V176.27q-19.35,0-28.58-8.63t-9.23-22q0-13.4,9.38-21.88t31.41-8.49Z" fill="#fff"/><path d="M92.9,237.61q10.72,12.21,14.59,23.67t3.87,37.07v97.07q0,12.21,4.62,17.42t17.12,6.25a30.46,30.46,0,0,1,20.54,9.68,31.53,31.53,0,0,1-1,43.17q-9.09,8.94-23.08,8.93A76.23,76.23,0,0,1,91.11,470.3Q72.65,459.74,59,435.91q-8.64-15.48-8.64-36V292.4q0-12.81-4.17-17.57t-17.86-6.4q-13.71-1.64-21-9.68T0,237.61q0-13.4,7.29-21.44t21.15-9.68q13.85-1.63,16.82-5.51,5.06-5.94,5.06-18.46V80.69q0-32.74,23.82-56.72T129.23,0q14.28,0,23.37,8.93a29.72,29.72,0,0,1,9.08,22,29.49,29.49,0,0,1-8,20.84q-8,8.64-20.84,9.83T116.72,67q-5.35,6.26-5.36,18.47v97.06q0,20.55-4,31.71T92.9,237.61Z" fill="#fff"/><path d="M825.58,218.17q-4-11.16-4-31.71V89.39q0-12.21-5.36-18.46-3.29-4.17-16.08-5.36t-20.84-9.83a29.47,29.47,0,0,1-8-20.84,29.66,29.66,0,0,1,9.08-22q9.09-8.94,23.37-8.93,31.26,0,55.09,24T882.6,84.63V186.46q0,12.51,5.06,18.46,3,3.87,16.82,5.51t21.14,9.68q7.3,8,7.3,21.43,0,13.11-7.3,21.14t-21,9.68q-13.7,1.65-17.87,6.4t-4.16,17.57V403.82q0,20.55-8.64,36-13.69,23.82-32.16,34.39a76.31,76.31,0,0,1-38.41,10.57q-14,0-23.07-8.93a31.54,31.54,0,0,1-1-43.18A30.4,30.4,0,0,1,799.82,423q12.51-1,17.12-6.26t4.62-17.42V302.29q0-25.6,3.87-37.07T840,241.54Q829.6,229.35,825.58,218.17Z" fill="#fff"/><path d="M568.94,252.81h69.95l-75,122.94q-5.56,9-8.88,11.39a13,13,0,0,1-7.81,2.39,14.89,14.89,0,0,1-10.6-4,12.61,12.61,0,0,1-4.24-9.54A28.59,28.59,0,0,1,534,367.8Z" fill="#fff"/><path d="M683.6,252.81h69.95l-75,122.94q-5.56,9-8.87,11.39a13,13,0,0,1-7.82,2.39,14.89,14.89,0,0,1-10.6-4A12.61,12.61,0,0,1,647,376a28.59,28.59,0,0,1,1.59-8.21Z" fill="#fff"/><path d="M722.28,121.53h9.8a34.27,34.27,0,0,1,25.31,10.59,34.64,34.64,0,0,1,10.46,25.17q0,15.65-10.59,26a34.84,34.84,0,0,1-25.18,10.33h-9.8A34.25,34.25,0,0,1,697,183a34.62,34.62,0,0,1-10.47-25.18q0-15.63,10.73-26A35,35,0,0,1,722.28,121.53Z" fill="#fff"/></g></g></svg>